<mxfile host="app.diagrams.net" modified="2023-06-15T13:07:42.061Z" agent="Mozilla/5.0 (Windows NT 10.0; Win64; x64) AppleWebKit/537.36 (KHTML, like Gecko) Chrome/114.0.0.0 Safari/537.36" etag="crGoP6taIIGGg0IpF97n" version="21.1.9" type="github">
  <diagram name="Page-1" id="jzrzwOPoYyNJ-fxy42DH">
    <mxGraphModel dx="664" dy="1010" grid="1" gridSize="10" guides="1" tooltips="1" connect="1" arrows="1" fold="1" page="1" pageScale="1" pageWidth="827" pageHeight="1169" math="0" shadow="0">
      <root>
        <mxCell id="0" />
        <mxCell id="1" parent="0" />
        <mxCell id="7ToaACuIXeCCzLui-t20-1" value="D::D()" style="text;html=1;strokeColor=none;fillColor=none;align=center;verticalAlign=middle;whiteSpace=wrap;rounded=0;" vertex="1" parent="1">
          <mxGeometry x="90" y="235" width="40" height="10" as="geometry" />
        </mxCell>
        <mxCell id="7ToaACuIXeCCzLui-t20-2" value="C::C()" style="text;html=1;strokeColor=none;fillColor=none;align=center;verticalAlign=middle;whiteSpace=wrap;rounded=0;" vertex="1" parent="1">
          <mxGeometry x="174" y="280" width="30" height="20" as="geometry" />
        </mxCell>
        <mxCell id="7ToaACuIXeCCzLui-t20-3" value="" style="endArrow=none;dashed=1;html=1;rounded=0;entryX=0.5;entryY=1;entryDx=0;entryDy=0;" edge="1" parent="1" target="7ToaACuIXeCCzLui-t20-1">
          <mxGeometry width="50" height="50" relative="1" as="geometry">
            <mxPoint x="110" y="490" as="sourcePoint" />
            <mxPoint x="160" y="360" as="targetPoint" />
          </mxGeometry>
        </mxCell>
        <mxCell id="7ToaACuIXeCCzLui-t20-4" value="" style="endArrow=none;html=1;rounded=0;" edge="1" parent="1">
          <mxGeometry width="50" height="50" relative="1" as="geometry">
            <mxPoint x="110" y="290" as="sourcePoint" />
            <mxPoint x="110" y="250" as="targetPoint" />
          </mxGeometry>
        </mxCell>
        <mxCell id="7ToaACuIXeCCzLui-t20-7" value="" style="endArrow=none;html=1;rounded=0;" edge="1" parent="1">
          <mxGeometry width="50" height="50" relative="1" as="geometry">
            <mxPoint x="190" y="343" as="sourcePoint" />
            <mxPoint x="190" y="303" as="targetPoint" />
          </mxGeometry>
        </mxCell>
        <mxCell id="7ToaACuIXeCCzLui-t20-11" value="" style="group" vertex="1" connectable="0" parent="1">
          <mxGeometry x="110" y="270" width="60" height="20" as="geometry" />
        </mxCell>
        <mxCell id="7ToaACuIXeCCzLui-t20-9" value="" style="group" vertex="1" connectable="0" parent="7ToaACuIXeCCzLui-t20-11">
          <mxGeometry width="60" height="20" as="geometry" />
        </mxCell>
        <mxCell id="7ToaACuIXeCCzLui-t20-5" value="" style="endArrow=classic;html=1;rounded=0;" edge="1" parent="7ToaACuIXeCCzLui-t20-9">
          <mxGeometry width="50" height="50" relative="1" as="geometry">
            <mxPoint y="20" as="sourcePoint" />
            <mxPoint x="60" y="20" as="targetPoint" />
          </mxGeometry>
        </mxCell>
        <mxCell id="7ToaACuIXeCCzLui-t20-8" value="call" style="text;html=1;strokeColor=none;fillColor=none;align=center;verticalAlign=middle;whiteSpace=wrap;rounded=0;" vertex="1" parent="7ToaACuIXeCCzLui-t20-11">
          <mxGeometry x="15" width="30" height="20" as="geometry" />
        </mxCell>
        <mxCell id="7ToaACuIXeCCzLui-t20-13" value="" style="group" vertex="1" connectable="0" parent="1">
          <mxGeometry x="190" y="398" width="60" height="20" as="geometry" />
        </mxCell>
        <mxCell id="7ToaACuIXeCCzLui-t20-14" value="" style="group" vertex="1" connectable="0" parent="7ToaACuIXeCCzLui-t20-13">
          <mxGeometry width="60" height="20" as="geometry" />
        </mxCell>
        <mxCell id="7ToaACuIXeCCzLui-t20-15" value="" style="endArrow=classic;html=1;rounded=0;" edge="1" parent="7ToaACuIXeCCzLui-t20-14">
          <mxGeometry width="50" height="50" relative="1" as="geometry">
            <mxPoint y="20" as="sourcePoint" />
            <mxPoint x="60" y="20" as="targetPoint" />
          </mxGeometry>
        </mxCell>
        <mxCell id="7ToaACuIXeCCzLui-t20-16" value="call" style="text;html=1;strokeColor=none;fillColor=none;align=center;verticalAlign=middle;whiteSpace=wrap;rounded=0;" vertex="1" parent="7ToaACuIXeCCzLui-t20-13">
          <mxGeometry x="15" width="30" height="20" as="geometry" />
        </mxCell>
        <mxCell id="7ToaACuIXeCCzLui-t20-17" value="A::A()" style="text;html=1;strokeColor=none;fillColor=none;align=center;verticalAlign=middle;whiteSpace=wrap;rounded=0;" vertex="1" parent="1">
          <mxGeometry x="250" y="408" width="30" height="20" as="geometry" />
        </mxCell>
        <mxCell id="7ToaACuIXeCCzLui-t20-19" value="" style="endArrow=none;html=1;rounded=0;" edge="1" parent="1">
          <mxGeometry width="50" height="50" relative="1" as="geometry">
            <mxPoint x="260" y="468" as="sourcePoint" />
            <mxPoint x="260" y="428" as="targetPoint" />
          </mxGeometry>
        </mxCell>
        <mxCell id="7ToaACuIXeCCzLui-t20-26" value="" style="group" vertex="1" connectable="0" parent="1">
          <mxGeometry x="120" y="322" width="70" height="20" as="geometry" />
        </mxCell>
        <mxCell id="7ToaACuIXeCCzLui-t20-24" value="return" style="text;html=1;strokeColor=none;fillColor=none;align=center;verticalAlign=middle;whiteSpace=wrap;rounded=0;" vertex="1" parent="7ToaACuIXeCCzLui-t20-26">
          <mxGeometry x="15" width="30" height="20" as="geometry" />
        </mxCell>
        <mxCell id="7ToaACuIXeCCzLui-t20-25" value="" style="endArrow=classic;html=1;rounded=0;" edge="1" parent="7ToaACuIXeCCzLui-t20-26">
          <mxGeometry width="50" height="50" relative="1" as="geometry">
            <mxPoint x="70" y="20" as="sourcePoint" />
            <mxPoint x="-10" y="20" as="targetPoint" />
          </mxGeometry>
        </mxCell>
        <mxCell id="7ToaACuIXeCCzLui-t20-27" value="B::B()" style="text;html=1;strokeColor=none;fillColor=none;align=center;verticalAlign=middle;whiteSpace=wrap;rounded=0;" vertex="1" parent="1">
          <mxGeometry x="174" y="356" width="30" height="20" as="geometry" />
        </mxCell>
        <mxCell id="7ToaACuIXeCCzLui-t20-28" value="" style="endArrow=none;html=1;rounded=0;" edge="1" parent="1">
          <mxGeometry width="50" height="50" relative="1" as="geometry">
            <mxPoint x="110" y="366" as="sourcePoint" />
            <mxPoint x="110" y="340" as="targetPoint" />
          </mxGeometry>
        </mxCell>
        <mxCell id="7ToaACuIXeCCzLui-t20-29" value="" style="endArrow=none;html=1;rounded=0;" edge="1" parent="1">
          <mxGeometry width="50" height="50" relative="1" as="geometry">
            <mxPoint x="190" y="419" as="sourcePoint" />
            <mxPoint x="190" y="379" as="targetPoint" />
          </mxGeometry>
        </mxCell>
        <mxCell id="7ToaACuIXeCCzLui-t20-30" value="" style="group" vertex="1" connectable="0" parent="1">
          <mxGeometry x="110" y="346" width="60" height="20" as="geometry" />
        </mxCell>
        <mxCell id="7ToaACuIXeCCzLui-t20-31" value="" style="group" vertex="1" connectable="0" parent="7ToaACuIXeCCzLui-t20-30">
          <mxGeometry width="60" height="20" as="geometry" />
        </mxCell>
        <mxCell id="7ToaACuIXeCCzLui-t20-32" value="" style="endArrow=classic;html=1;rounded=0;" edge="1" parent="7ToaACuIXeCCzLui-t20-31">
          <mxGeometry width="50" height="50" relative="1" as="geometry">
            <mxPoint y="20" as="sourcePoint" />
            <mxPoint x="60" y="20" as="targetPoint" />
          </mxGeometry>
        </mxCell>
        <mxCell id="7ToaACuIXeCCzLui-t20-33" value="call" style="text;html=1;strokeColor=none;fillColor=none;align=center;verticalAlign=middle;whiteSpace=wrap;rounded=0;" vertex="1" parent="7ToaACuIXeCCzLui-t20-30">
          <mxGeometry x="15" width="30" height="20" as="geometry" />
        </mxCell>
        <mxCell id="7ToaACuIXeCCzLui-t20-34" value="" style="group" vertex="1" connectable="0" parent="1">
          <mxGeometry x="200" y="449" width="61" height="20" as="geometry" />
        </mxCell>
        <mxCell id="7ToaACuIXeCCzLui-t20-35" value="return" style="text;html=1;strokeColor=none;fillColor=none;align=center;verticalAlign=middle;whiteSpace=wrap;rounded=0;" vertex="1" parent="7ToaACuIXeCCzLui-t20-34">
          <mxGeometry x="13.071428571428571" width="26.142857142857142" height="20" as="geometry" />
        </mxCell>
        <mxCell id="7ToaACuIXeCCzLui-t20-36" value="" style="endArrow=classic;html=1;rounded=0;" edge="1" parent="7ToaACuIXeCCzLui-t20-34">
          <mxGeometry width="50" height="50" relative="1" as="geometry">
            <mxPoint x="61" y="20" as="sourcePoint" />
            <mxPoint x="-8.714285714285715" y="20" as="targetPoint" />
          </mxGeometry>
        </mxCell>
        <mxCell id="7ToaACuIXeCCzLui-t20-37" value="" style="endArrow=none;dashed=1;html=1;rounded=0;entryX=0.5;entryY=1;entryDx=0;entryDy=0;" edge="1" parent="1">
          <mxGeometry width="50" height="50" relative="1" as="geometry">
            <mxPoint x="190" y="490" as="sourcePoint" />
            <mxPoint x="190" y="380" as="targetPoint" />
          </mxGeometry>
        </mxCell>
        <mxCell id="7ToaACuIXeCCzLui-t20-38" value="" style="group" vertex="1" connectable="0" parent="1">
          <mxGeometry x="121" y="471" width="70" height="20" as="geometry" />
        </mxCell>
        <mxCell id="7ToaACuIXeCCzLui-t20-39" value="return" style="text;html=1;strokeColor=none;fillColor=none;align=center;verticalAlign=middle;whiteSpace=wrap;rounded=0;" vertex="1" parent="7ToaACuIXeCCzLui-t20-38">
          <mxGeometry x="15" width="30" height="20" as="geometry" />
        </mxCell>
        <mxCell id="7ToaACuIXeCCzLui-t20-40" value="" style="endArrow=classic;html=1;rounded=0;" edge="1" parent="7ToaACuIXeCCzLui-t20-38">
          <mxGeometry width="50" height="50" relative="1" as="geometry">
            <mxPoint x="70" y="20" as="sourcePoint" />
            <mxPoint x="-10" y="20" as="targetPoint" />
          </mxGeometry>
        </mxCell>
        <mxCell id="7ToaACuIXeCCzLui-t20-41" value="" style="endArrow=none;html=1;rounded=0;" edge="1" parent="1">
          <mxGeometry width="50" height="50" relative="1" as="geometry">
            <mxPoint x="190" y="490" as="sourcePoint" />
            <mxPoint x="190" y="470" as="targetPoint" />
          </mxGeometry>
        </mxCell>
        <mxCell id="7ToaACuIXeCCzLui-t20-42" value="" style="endArrow=none;html=1;rounded=0;" edge="1" parent="1">
          <mxGeometry width="50" height="50" relative="1" as="geometry">
            <mxPoint x="110" y="510" as="sourcePoint" />
            <mxPoint x="110" y="490" as="targetPoint" />
          </mxGeometry>
        </mxCell>
        <mxCell id="7ToaACuIXeCCzLui-t20-111" value="" style="group" vertex="1" connectable="0" parent="1">
          <mxGeometry x="80" y="549" width="235" height="275" as="geometry" />
        </mxCell>
        <mxCell id="7ToaACuIXeCCzLui-t20-77" value="D::D(const D &amp;amp;)" style="text;html=1;strokeColor=none;fillColor=none;align=center;verticalAlign=middle;whiteSpace=wrap;rounded=0;" vertex="1" parent="7ToaACuIXeCCzLui-t20-111">
          <mxGeometry width="100" height="10" as="geometry" />
        </mxCell>
        <mxCell id="7ToaACuIXeCCzLui-t20-78" value="C::C(const C&amp;amp;)" style="text;html=1;strokeColor=none;fillColor=none;align=center;verticalAlign=middle;whiteSpace=wrap;rounded=0;" vertex="1" parent="7ToaACuIXeCCzLui-t20-111">
          <mxGeometry x="109" y="45" width="96" height="20" as="geometry" />
        </mxCell>
        <mxCell id="7ToaACuIXeCCzLui-t20-79" value="" style="endArrow=none;dashed=1;html=1;rounded=0;entryX=0.5;entryY=1;entryDx=0;entryDy=0;" edge="1" parent="7ToaACuIXeCCzLui-t20-111" target="7ToaACuIXeCCzLui-t20-77">
          <mxGeometry width="50" height="50" relative="1" as="geometry">
            <mxPoint x="50" y="255" as="sourcePoint" />
            <mxPoint x="100" y="125" as="targetPoint" />
          </mxGeometry>
        </mxCell>
        <mxCell id="7ToaACuIXeCCzLui-t20-80" value="" style="endArrow=none;html=1;rounded=0;" edge="1" parent="7ToaACuIXeCCzLui-t20-111">
          <mxGeometry width="50" height="50" relative="1" as="geometry">
            <mxPoint x="50" y="55" as="sourcePoint" />
            <mxPoint x="50" y="15" as="targetPoint" />
          </mxGeometry>
        </mxCell>
        <mxCell id="7ToaACuIXeCCzLui-t20-81" value="" style="endArrow=none;html=1;rounded=0;" edge="1" parent="7ToaACuIXeCCzLui-t20-111">
          <mxGeometry width="50" height="50" relative="1" as="geometry">
            <mxPoint x="130" y="108" as="sourcePoint" />
            <mxPoint x="130" y="68" as="targetPoint" />
          </mxGeometry>
        </mxCell>
        <mxCell id="7ToaACuIXeCCzLui-t20-82" value="" style="group" vertex="1" connectable="0" parent="7ToaACuIXeCCzLui-t20-111">
          <mxGeometry x="50" y="35" width="60" height="20" as="geometry" />
        </mxCell>
        <mxCell id="7ToaACuIXeCCzLui-t20-83" value="" style="group" vertex="1" connectable="0" parent="7ToaACuIXeCCzLui-t20-82">
          <mxGeometry width="60" height="20" as="geometry" />
        </mxCell>
        <mxCell id="7ToaACuIXeCCzLui-t20-84" value="" style="endArrow=classic;html=1;rounded=0;" edge="1" parent="7ToaACuIXeCCzLui-t20-83">
          <mxGeometry width="50" height="50" relative="1" as="geometry">
            <mxPoint y="20" as="sourcePoint" />
            <mxPoint x="60" y="20" as="targetPoint" />
          </mxGeometry>
        </mxCell>
        <mxCell id="7ToaACuIXeCCzLui-t20-85" value="call" style="text;html=1;strokeColor=none;fillColor=none;align=center;verticalAlign=middle;whiteSpace=wrap;rounded=0;" vertex="1" parent="7ToaACuIXeCCzLui-t20-82">
          <mxGeometry x="15" width="30" height="20" as="geometry" />
        </mxCell>
        <mxCell id="7ToaACuIXeCCzLui-t20-86" value="" style="group" vertex="1" connectable="0" parent="7ToaACuIXeCCzLui-t20-111">
          <mxGeometry x="130" y="163" width="60" height="20" as="geometry" />
        </mxCell>
        <mxCell id="7ToaACuIXeCCzLui-t20-87" value="" style="group" vertex="1" connectable="0" parent="7ToaACuIXeCCzLui-t20-86">
          <mxGeometry width="60" height="20" as="geometry" />
        </mxCell>
        <mxCell id="7ToaACuIXeCCzLui-t20-88" value="" style="endArrow=classic;html=1;rounded=0;" edge="1" parent="7ToaACuIXeCCzLui-t20-87">
          <mxGeometry width="50" height="50" relative="1" as="geometry">
            <mxPoint y="20" as="sourcePoint" />
            <mxPoint x="60" y="20" as="targetPoint" />
          </mxGeometry>
        </mxCell>
        <mxCell id="7ToaACuIXeCCzLui-t20-89" value="call" style="text;html=1;strokeColor=none;fillColor=none;align=center;verticalAlign=middle;whiteSpace=wrap;rounded=0;" vertex="1" parent="7ToaACuIXeCCzLui-t20-86">
          <mxGeometry x="15" width="30" height="20" as="geometry" />
        </mxCell>
        <mxCell id="7ToaACuIXeCCzLui-t20-90" value="A::A()" style="text;html=1;strokeColor=none;fillColor=none;align=center;verticalAlign=middle;whiteSpace=wrap;rounded=0;" vertex="1" parent="7ToaACuIXeCCzLui-t20-111">
          <mxGeometry x="185" y="173" width="50" height="20" as="geometry" />
        </mxCell>
        <mxCell id="7ToaACuIXeCCzLui-t20-91" value="" style="endArrow=none;html=1;rounded=0;" edge="1" parent="7ToaACuIXeCCzLui-t20-111">
          <mxGeometry width="50" height="50" relative="1" as="geometry">
            <mxPoint x="200" y="233" as="sourcePoint" />
            <mxPoint x="200" y="193" as="targetPoint" />
          </mxGeometry>
        </mxCell>
        <mxCell id="7ToaACuIXeCCzLui-t20-92" value="" style="group" vertex="1" connectable="0" parent="7ToaACuIXeCCzLui-t20-111">
          <mxGeometry x="60" y="87" width="70" height="20" as="geometry" />
        </mxCell>
        <mxCell id="7ToaACuIXeCCzLui-t20-93" value="return" style="text;html=1;strokeColor=none;fillColor=none;align=center;verticalAlign=middle;whiteSpace=wrap;rounded=0;" vertex="1" parent="7ToaACuIXeCCzLui-t20-92">
          <mxGeometry x="15" width="30" height="20" as="geometry" />
        </mxCell>
        <mxCell id="7ToaACuIXeCCzLui-t20-94" value="" style="endArrow=classic;html=1;rounded=0;" edge="1" parent="7ToaACuIXeCCzLui-t20-92">
          <mxGeometry width="50" height="50" relative="1" as="geometry">
            <mxPoint x="70" y="20" as="sourcePoint" />
            <mxPoint x="-10" y="20" as="targetPoint" />
          </mxGeometry>
        </mxCell>
        <mxCell id="7ToaACuIXeCCzLui-t20-95" value="B::B(const B&amp;amp;)" style="text;html=1;strokeColor=none;fillColor=none;align=center;verticalAlign=middle;whiteSpace=wrap;rounded=0;" vertex="1" parent="7ToaACuIXeCCzLui-t20-111">
          <mxGeometry x="115" y="121" width="86" height="20" as="geometry" />
        </mxCell>
        <mxCell id="7ToaACuIXeCCzLui-t20-96" value="" style="endArrow=none;html=1;rounded=0;" edge="1" parent="7ToaACuIXeCCzLui-t20-111">
          <mxGeometry width="50" height="50" relative="1" as="geometry">
            <mxPoint x="50" y="131" as="sourcePoint" />
            <mxPoint x="50" y="105" as="targetPoint" />
          </mxGeometry>
        </mxCell>
        <mxCell id="7ToaACuIXeCCzLui-t20-97" value="" style="endArrow=none;html=1;rounded=0;" edge="1" parent="7ToaACuIXeCCzLui-t20-111">
          <mxGeometry width="50" height="50" relative="1" as="geometry">
            <mxPoint x="130" y="184" as="sourcePoint" />
            <mxPoint x="130" y="144" as="targetPoint" />
          </mxGeometry>
        </mxCell>
        <mxCell id="7ToaACuIXeCCzLui-t20-98" value="" style="group" vertex="1" connectable="0" parent="7ToaACuIXeCCzLui-t20-111">
          <mxGeometry x="50" y="111" width="60" height="20" as="geometry" />
        </mxCell>
        <mxCell id="7ToaACuIXeCCzLui-t20-99" value="" style="group" vertex="1" connectable="0" parent="7ToaACuIXeCCzLui-t20-98">
          <mxGeometry width="60" height="20" as="geometry" />
        </mxCell>
        <mxCell id="7ToaACuIXeCCzLui-t20-100" value="" style="endArrow=classic;html=1;rounded=0;" edge="1" parent="7ToaACuIXeCCzLui-t20-99">
          <mxGeometry width="50" height="50" relative="1" as="geometry">
            <mxPoint y="20" as="sourcePoint" />
            <mxPoint x="60" y="20" as="targetPoint" />
          </mxGeometry>
        </mxCell>
        <mxCell id="7ToaACuIXeCCzLui-t20-101" value="call" style="text;html=1;strokeColor=none;fillColor=none;align=center;verticalAlign=middle;whiteSpace=wrap;rounded=0;" vertex="1" parent="7ToaACuIXeCCzLui-t20-98">
          <mxGeometry x="15" width="30" height="20" as="geometry" />
        </mxCell>
        <mxCell id="7ToaACuIXeCCzLui-t20-102" value="" style="group" vertex="1" connectable="0" parent="7ToaACuIXeCCzLui-t20-111">
          <mxGeometry x="140" y="214" width="61" height="20" as="geometry" />
        </mxCell>
        <mxCell id="7ToaACuIXeCCzLui-t20-103" value="return" style="text;html=1;strokeColor=none;fillColor=none;align=center;verticalAlign=middle;whiteSpace=wrap;rounded=0;" vertex="1" parent="7ToaACuIXeCCzLui-t20-102">
          <mxGeometry x="13.071428571428571" width="26.142857142857142" height="20" as="geometry" />
        </mxCell>
        <mxCell id="7ToaACuIXeCCzLui-t20-104" value="" style="endArrow=classic;html=1;rounded=0;" edge="1" parent="7ToaACuIXeCCzLui-t20-102">
          <mxGeometry width="50" height="50" relative="1" as="geometry">
            <mxPoint x="61" y="20" as="sourcePoint" />
            <mxPoint x="-8.714285714285715" y="20" as="targetPoint" />
          </mxGeometry>
        </mxCell>
        <mxCell id="7ToaACuIXeCCzLui-t20-105" value="" style="endArrow=none;dashed=1;html=1;rounded=0;entryX=0.5;entryY=1;entryDx=0;entryDy=0;" edge="1" parent="7ToaACuIXeCCzLui-t20-111">
          <mxGeometry width="50" height="50" relative="1" as="geometry">
            <mxPoint x="130" y="255" as="sourcePoint" />
            <mxPoint x="130" y="145" as="targetPoint" />
          </mxGeometry>
        </mxCell>
        <mxCell id="7ToaACuIXeCCzLui-t20-106" value="" style="group" vertex="1" connectable="0" parent="7ToaACuIXeCCzLui-t20-111">
          <mxGeometry x="61" y="236" width="70" height="20" as="geometry" />
        </mxCell>
        <mxCell id="7ToaACuIXeCCzLui-t20-107" value="return" style="text;html=1;strokeColor=none;fillColor=none;align=center;verticalAlign=middle;whiteSpace=wrap;rounded=0;" vertex="1" parent="7ToaACuIXeCCzLui-t20-106">
          <mxGeometry x="15" width="30" height="20" as="geometry" />
        </mxCell>
        <mxCell id="7ToaACuIXeCCzLui-t20-108" value="" style="endArrow=classic;html=1;rounded=0;" edge="1" parent="7ToaACuIXeCCzLui-t20-106">
          <mxGeometry width="50" height="50" relative="1" as="geometry">
            <mxPoint x="70" y="20" as="sourcePoint" />
            <mxPoint x="-10" y="20" as="targetPoint" />
          </mxGeometry>
        </mxCell>
        <mxCell id="7ToaACuIXeCCzLui-t20-109" value="" style="endArrow=none;html=1;rounded=0;" edge="1" parent="7ToaACuIXeCCzLui-t20-111">
          <mxGeometry width="50" height="50" relative="1" as="geometry">
            <mxPoint x="130" y="255" as="sourcePoint" />
            <mxPoint x="130" y="235" as="targetPoint" />
          </mxGeometry>
        </mxCell>
        <mxCell id="7ToaACuIXeCCzLui-t20-110" value="" style="endArrow=none;html=1;rounded=0;" edge="1" parent="7ToaACuIXeCCzLui-t20-111">
          <mxGeometry width="50" height="50" relative="1" as="geometry">
            <mxPoint x="50" y="275" as="sourcePoint" />
            <mxPoint x="50" y="255" as="targetPoint" />
          </mxGeometry>
        </mxCell>
      </root>
    </mxGraphModel>
  </diagram>
</mxfile>
